# xmcd CD database file
#
# Track frame offsets:
#	150
#	15710
#	34254
#	48505
#	65116
#	78168
#	90462
#	106498
#	123867
#	146795
#	159845
#	173671
#
# Disc length: 2473 seconds
#
# Revision: 0
# Processed by: cddbd v1.5.1PL2 Copyright (c) Steve Scherf et al.
# Submitted via: CDex 1.51
#
DISCID=9609a70c
DTITLE=Herb Steiner - Texas Dance Time
DYEAR=2000
DGENRE=Country
TTITLE0=Johnson Rag
TTITLE1=Perdido
TTITLE2=Boot Heel Drag
TTITLE3=Rose Room
TTITLE4=Skaters Waltz
TTITLE5=Deed I Do
TTITLE6=Tippin' In
TTITLE7=Blue Bonnet Rag
TTITLE8=I Gotta Have My Baby Back
TTITLE9=Rosetta
TTITLE10=Steelin' Home
TTITLE11=Curtain Call
EXTD=YEAR: 2000
EXTT0=
EXTT1=
EXTT2=
EXTT3=
EXTT4=
EXTT5=
EXTT6=
EXTT7=
EXTT8=
EXTT9=
EXTT10=
EXTT11=
PLAYORDER=
